<?xml version="1.0" standalone="no"?>
<!DOCTYPE svg PUBLIC "-//W3C//DTD SVG 20010904//EN"
 "http://www.w3.org/TR/2001/REC-SVG-20010904/DTD/svg10.dtd">
<svg version="1.0" xmlns="http://www.w3.org/2000/svg"
 width="512.000000pt" height="512.000000pt" viewBox="0 0 512.000000 512.000000"
 preserveAspectRatio="xMidYMid meet">
<metadata>
Created by potrace 1.11, written by Peter Selinger 2001-2013
</metadata>
<g transform="translate(0.000000,512.000000) scale(0.100000,-0.100000)"
fill="#000000" stroke="none">
<path d="M2515 4989 c-213 -6 -345 -22 -345 -41 0 -5 -9 -6 -20 -3 -11 3 -20
2 -20 -3 0 -6 -10 -10 -22 -10 -41 0 -77 -8 -92 -21 -9 -8 -25 -11 -36 -8 -11
3 -20 2 -20 -3 0 -4 -20 -14 -45 -21 -25 -7 -45 -17 -45 -21 0 -4 -7 -4 -17
-1 -10 4 -14 2 -9 -5 4 -6 -1 -11 -11 -11 -10 1 -31 -2 -48 -6 -47 -11 -67
-15 -107 -21 -21 -3 -35 -10 -32 -16 5 -8 -13 -17 -41 -20 -5 -1 -14 -7 -20
-14 -5 -7 -19 -14 -30 -16 -11 -2 -25 -9 -30 -16 -6 -7 -20 -14 -33 -15 -12 0
-22 -5 -22 -9 0 -5 -8 -11 -17 -15 -10 -3 -35 -21 -56 -40 -20 -18 -44 -33
-53 -33 -8 0 -12 -4 -9 -10 6 -9 -1 -12 -22 -9 -3 0 -10 -6 -15 -15 -5 -9 -16
-16 -23 -16 -8 0 -15 -4 -15 -10 0 -10 -90 -75 -105 -75 -5 0 -10 -7 -10 -15
0 -8 -7 -15 -15 -15 -8 0 -15 -4 -15 -10 0 -15 -58 -70 -70 -67 -5 2 -7 1 -3
-3 8 -9 -21 -40 -36 -40 -6 0 -11 -6 -11 -12 0 -7 -3 -12 -7 -10 -3 1 -17 -8
-30 -21 -14 -12 -27 -20 -30 -17 -4 4 -72 -71 -127 -140 -15 -19 -15 -19 4 -5
19 15 19 15 0 -12 -11 -15 -24 -28 -30 -28 -5 0 -23 -28 -39 -61 -17 -34 -45
-77 -63 -96 -32 -35 -91 -129 -73 -118 6 3 7 -1 4 -9 -3 -9 -10 -14 -14 -11
-5 3 -7 -6 -6 -20 2 -14 -3 -33 -11 -42 -8 -10 -12 -12 -8 -6 4 9 1 11 -10 7
-17 -7 -51 -64 -38 -64 5 0 0 -5 -10 -11 -9 -6 -15 -15 -11 -20 3 -6 -2 -16
-12 -24 -11 -7 -16 -17 -11 -21 4 -4 1 -14 -7 -23 -19 -20 -58 -111 -48 -111
4 0 1 -4 -6 -9 -8 -5 -15 -20 -15 -34 -1 -14 -5 -23 -9 -20 -5 2 -8 -2 -9 -9
0 -7 -3 -22 -5 -33 -3 -11 -6 -25 -6 -32 -1 -7 -5 -10 -9 -7 -9 5 -22 -36 -23
-77 -1 -15 -5 -25 -10 -22 -4 3 -5 -4 -1 -16 3 -11 2 -21 -3 -21 -10 0 -37
-92 -47 -162 -4 -27 -11 -48 -16 -48 -5 0 -8 -12 -7 -27 4 -43 -13 -207 -21
-195 -3 5 -6 -73 -6 -174 0 -101 3 -184 6 -184 10 0 22 -118 20 -183 -2 -31 1
-57 7 -57 5 0 12 -24 16 -52 8 -60 37 -161 48 -166 4 -2 5 -9 2 -17 -3 -7 0
-24 7 -36 6 -13 13 -32 14 -44 4 -34 5 -36 12 -32 5 3 9 -8 10 -25 1 -16 9
-43 17 -59 10 -19 11 -27 3 -23 -7 3 -3 -3 9 -13 11 -10 18 -25 16 -32 -3 -9
0 -11 8 -6 8 5 11 4 6 -3 -8 -13 22 -92 36 -92 5 0 7 -4 4 -9 -3 -5 1 -12 10
-15 9 -4 14 -9 11 -13 -4 -3 -2 -12 4 -20 6 -7 9 -13 6 -13 -3 0 10 -18 30
-39 19 -22 34 -42 34 -45 -1 -4 6 -20 15 -37 8 -17 13 -33 10 -36 -3 -4 1 -11
9 -17 9 -6 17 -22 20 -36 2 -14 14 -33 25 -42 12 -9 21 -21 22 -25 2 -20 11
-32 19 -27 5 3 9 2 8 -3 -3 -19 2 -31 27 -59 14 -16 32 -41 40 -57 8 -15 21
-27 30 -27 8 0 13 -4 10 -8 -3 -5 6 -16 20 -27 13 -10 34 -40 47 -67 12 -26
28 -48 34 -48 7 0 13 -4 13 -10 0 -13 53 -64 133 -129 36 -30 65 -57 62 -60
-2 -4 12 -17 31 -30 18 -13 31 -28 27 -34 -3 -6 -1 -7 5 -3 7 4 12 2 12 -3 0
-6 5 -10 12 -8 7 1 12 -4 13 -10 0 -7 3 -12 6 -10 4 1 16 -6 27 -16 11 -10 27
-19 35 -21 8 -1 21 -7 28 -12 8 -6 22 -14 32 -17 11 -4 15 -12 11 -19 -4 -7
-4 -10 0 -6 10 8 86 -30 86 -43 0 -5 3 -8 8 -7 10 2 62 -20 62 -27 0 -4 -4 -3
-10 0 -5 3 -10 4 -10 1 0 -11 110 -57 121 -50 7 4 9 3 5 -4 -6 -11 89 -60 154
-80 74 -23 110 -39 103 -47 -5 -4 0 -5 10 -2 9 4 17 2 17 -2 0 -5 10 -7 22 -3
16 4 19 2 13 -8 -6 -10 -2 -11 16 -7 32 8 76 -3 58 -14 -8 -5 0 -8 21 -7 63 2
172 -15 158 -23 -12 -8 10 -11 127 -14 143 -5 170 -7 140 -15 -18 -5 28 -8
115 -8 86 0 135 3 120 8 -19 6 -9 9 40 10 207 7 236 9 222 19 -10 6 -7 10 13
15 14 4 30 4 35 1 5 -3 39 1 75 10 37 8 70 13 75 10 5 -3 10 -1 12 5 2 6 20
11 40 12 21 1 39 7 42 15 3 7 14 13 24 13 18 0 97 26 165 55 23 9 35 20 31 27
-4 6 -3 8 3 5 13 -8 75 12 69 22 -3 4 5 8 16 8 12 1 25 8 29 15 5 7 9 9 9 4 0
-5 8 -2 18 7 10 10 22 14 27 10 4 -5 5 -3 1 4 -4 7 13 21 46 38 84 41 143 81
140 94 -1 7 2 10 7 7 5 -3 19 2 32 12 13 10 36 24 52 31 15 8 27 18 27 23 0 4
7 8 15 8 13 0 105 81 176 154 11 11 19 16 19 11 0 -18 73 63 118 130 25 39 54
78 64 88 10 10 15 24 11 30 -4 7 2 5 12 -3 10 -8 16 -10 12 -4 -4 7 0 17 9 24
8 7 13 19 10 27 -3 8 -2 12 3 9 14 -9 125 147 113 159 -3 3 2 3 12 -1 12 -5
17 -4 13 3 -4 5 6 30 21 54 26 40 34 56 43 84 1 6 11 19 21 29 9 10 15 23 12
28 -3 4 -1 8 4 8 5 0 21 27 36 60 15 33 31 60 35 60 4 0 8 9 9 20 1 11 3 29 4
39 1 11 5 18 9 15 4 -2 10 10 14 27 4 17 13 33 19 35 7 3 13 18 14 34 0 16 6
38 12 49 6 12 11 36 12 56 1 20 5 32 11 28 6 -4 8 0 4 10 -3 10 -3 17 1 17 14
0 67 222 58 245 -3 8 0 14 5 12 7 -1 12 21 14 54 2 31 9 81 17 110 11 41 13
104 11 254 -4 248 -6 275 -17 275 -4 0 -6 13 -4 30 3 17 0 30 -5 30 -5 0 -7
11 -5 25 3 14 2 28 -2 30 -4 2 -13 38 -21 80 -7 41 -16 75 -21 75 -4 0 -5 7
-2 15 4 8 1 15 -6 15 -6 0 -8 5 -4 11 3 6 1 15 -7 19 -10 7 -10 11 0 24 11 13
11 16 -2 16 -8 0 -18 7 -21 16 -3 8 -2 12 4 9 15 -9 12 7 -5 31 -8 12 -12 23
-10 26 8 7 -16 68 -26 68 -4 0 -6 7 -3 15 4 8 1 15 -6 15 -7 0 -10 6 -7 13 6
16 -67 179 -76 170 -7 -7 -8 -4 -12 36 -1 13 -10 28 -18 33 -9 5 -14 15 -11
22 3 8 -7 26 -23 42 -15 15 -19 21 -8 14 11 -8 3 3 -17 24 -21 21 -35 42 -33
46 3 5 -2 10 -10 14 -8 3 -15 12 -15 20 0 18 -35 78 -41 71 -3 -2 -15 18 -28
45 -13 27 -27 47 -32 44 -5 -3 -7 1 -4 8 2 7 -7 27 -21 43 -15 17 -23 23 -19
15 10 -22 -31 28 -61 73 -15 24 -31 37 -39 33 -9 -3 -12 0 -9 9 6 14 -200 241
-231 255 -5 3 -9 8 -8 13 2 4 -2 7 -7 7 -6 0 -10 7 -10 15 0 8 -7 15 -16 15
-9 0 -34 18 -56 41 -22 22 -42 38 -45 35 -3 -2 -16 6 -29 19 -13 13 -33 26
-44 30 -11 3 -20 11 -20 16 0 5 -8 9 -18 9 -10 0 -25 9 -35 20 -9 11 -24 20
-32 20 -8 0 -15 3 -15 8 0 12 -144 93 -175 97 -32 5 -219 79 -233 92 -8 7 -18
11 -23 8 -5 -4 -9 -1 -9 5 0 7 -6 10 -14 7 -8 -3 -17 -3 -20 1 -7 7 -31 13
-58 15 -10 1 -18 5 -18 10 0 5 -9 5 -20 2 -11 -3 -20 -3 -20 2 0 8 -9 10 -65
16 -14 1 -25 6 -25 11 0 4 -12 5 -27 1 -16 -4 -24 -3 -20 1 10 10 -93 32 -151
33 -24 1 -51 4 -60 9 -9 4 -116 5 -237 1z"/>
</g>
</svg>
